<svg width="874" height="867" viewBox="0 0 874 867" fill="none" xmlns="http://www.w3.org/2000/svg">
<g clip-path="url(#clip0_1_2)">
<path fill-rule="evenodd" clip-rule="evenodd" d="M0.0019722 444L0.00897217 888H444.504H889V444V0H444.498H-0.00402832L0.0019722 444ZM568 65.361C564.975 66.082 560.144 67.6 557.264 68.735C552.526 70.601 551.001 70.715 541.264 69.93C475.49 64.632 394.653 71.187 341.5 86.13C331.158 89.038 324.032 91.823 330 90.624C334.83 89.655 345.494 88.742 344.939 89.345C344.63 89.681 340.355 91.113 335.439 92.527C322.619 96.215 307.91 101.755 305 103.992C302.789 105.691 303.256 105.64 309.04 103.549C312.637 102.249 317.812 100.895 320.54 100.541L325.5 99.896L318.5 102.822C304.597 108.634 292.173 114.808 286.146 118.901C282.766 121.196 280 123.281 280 123.533C280 123.786 284.061 121.941 289.024 119.434C297.991 114.905 308.97 110.636 309.721 111.387C309.937 111.603 304.575 114.676 297.807 118.215C291.038 121.755 281.9 126.814 277.5 129.459C260.17 139.875 228.616 161.745 217.426 171.096C215.186 172.968 211.374 176.075 208.955 178C198.849 186.044 185.483 198.369 169.454 214.425C89.595 294.419 45.446 391.637 40.45 498.5C39.747 513.546 40.085 515.774 41.959 508.441C42.711 505.501 42.85 508.563 42.51 520.5C42.259 529.3 42.445 538.075 42.924 540C43.711 543.161 43.812 542.87 43.968 537C44.25 526.391 45.848 525.172 45.934 535.5C46.028 546.705 49.113 568.06 52.45 580.598C60.828 612.073 77.014 638.21 100.243 657.774L103.985 660.926L101.243 665.413C97.03 672.305 90.203 683.388 82.758 695.423C76.153 706.098 74.875 708.814 77.1 707.438C77.895 706.947 77.894 707.33 77.094 708.824C76.487 709.959 75.544 711.164 75 711.5C74.456 711.836 73.491 713.082 72.856 714.268C71.705 716.419 71.71 716.42 74.474 714.609C77.548 712.595 77.268 713.292 72.486 719.575C64.671 729.842 63.948 744.933 70.552 759.963C76.674 773.895 81.978 781.963 91 791.068C101.925 802.095 112.739 807.868 127.414 810.51C141.97 813.131 150.104 812.322 162.5 807.018C168 804.665 173.11 802.253 173.857 801.659C174.603 801.064 176.178 800.097 177.357 799.51C182.627 796.882 177.68 791.503 167.188 788.452C148.278 782.955 139.545 768.996 144.526 752.224C146.355 746.066 148.459 744.037 147.452 749.402C146.552 754.199 147.475 753.947 149.841 748.75C150.904 746.413 152.537 743.6 153.469 742.5L155.163 740.5L154.486 742.5C154.113 743.6 153.558 745.175 153.252 746C152.947 746.825 154.408 745.25 156.499 742.5C161.427 736.021 166.15 731 167.317 731C167.825 731 166.692 732.912 164.8 735.25C162.907 737.587 160.967 740.175 160.487 741C159.714 742.331 159.834 742.332 161.558 741.008C162.626 740.187 165.582 737.565 168.127 735.181C174.618 729.099 185.464 721.323 192.25 717.885C195.412 716.282 198 714.303 198 713.486C198 712.67 193.01 707.051 186.912 701.001C180.813 694.95 176.087 690 176.409 690C176.732 690 179.359 691.662 182.248 693.693C203.849 708.883 223.447 730.773 233.999 751.498C239.492 762.286 240.562 766.047 236.135 759C230.181 749.523 230.396 752.393 236.561 764.681C240.098 771.732 245.078 782.803 247.627 789.285C252.816 802.481 254.638 804.578 265.601 809.975C273.216 813.724 280.839 816.264 291.5 818.606C302.211 820.959 333.447 820.995 346.5 818.67C351.45 817.788 357.3 816.753 359.5 816.369C363.792 815.619 366.794 813.809 374.199 807.502C376.783 805.301 381.672 801.25 385.063 798.5C395.89 789.72 397.207 788.252 396.494 785.757C395.617 782.689 390.449 778.223 385 775.826C382.525 774.737 375.55 773.194 369.5 772.398C352.659 770.182 342.57 765.676 337.393 758.058C334.467 753.751 334.257 751.825 337.039 754.811C340.284 758.295 340.282 757.398 337.03 751.554C333.349 744.937 333.128 742.911 336.502 746.694L339.004 749.5L336.086 742.5C331.588 731.709 329.125 720.564 326.963 701.224C322.248 659.053 312.064 616.165 300.543 589.961C298.555 585.439 297.103 581.563 297.318 581.349C297.532 581.135 298.932 582.81 300.429 585.071C301.925 587.333 303.374 588.959 303.649 588.685C304.19 588.143 299.033 577.313 296.537 573.749C293.996 570.122 294.8 569.435 298 572.5C299.65 574.081 301 575.102 301 574.768C301 574.435 299.183 570.638 296.962 566.331C289.947 552.728 289.776 540.922 296.412 528.306C306.697 508.75 330.321 483.968 353.774 468.129L360.049 463.892L366.774 469.814C378.672 480.288 389.66 486.737 404.92 492.201C414.887 495.77 421.193 502.564 423.909 512.659C424.936 516.476 424.733 517.546 421.441 525.659C394.947 590.951 400.802 664.876 437.155 724.08C479.209 792.569 553.039 832.373 633 829.666C697.559 827.481 757.257 797.524 797.323 747.208C822.033 716.177 837.273 681.051 843.621 640.5C845.982 625.423 845.966 593.641 843.59 578.5C837.577 540.173 823.975 507.227 801.685 477C793.359 465.71 772.067 444.224 759.567 434.498C748.375 425.791 727.859 413.415 717.168 408.922C708.267 405.181 706.149 402.354 712.928 403.264C717.817 403.919 717.527 402.279 712.21 399.196C709.328 397.526 708.946 397.017 710.5 396.917C714.775 396.641 718.608 397.263 721.338 398.675C726.914 401.558 725.63 398.479 719.663 394.657C718.103 393.658 717.076 392.591 717.381 392.285C718.268 391.399 724.172 394.103 728.25 397.262C732.3 400.4 733.157 399.74 730.092 395.844C725.349 389.814 710.238 385.025 695.792 384.974C677.258 384.909 660.387 382.051 631.25 374.044C596.286 364.435 564.075 352.157 535 337.356C524.825 332.176 515.375 327.022 514 325.902C511.597 323.945 511.591 323.91 513.836 325.014C517.986 327.054 517.268 325.28 512.66 322.11C507.915 318.845 500.979 311.367 501.03 309.57C501.047 308.982 501.516 309.282 502.073 310.238C502.63 311.193 504.021 312.476 505.164 313.088C507.455 314.314 507.315 313.873 503.793 308.785C501.367 305.28 500.483 297.619 501.899 292.368C504.07 284.32 512.448 278 520.948 278C525.304 278 531.943 280.255 536.154 283.166C540.513 286.177 540.659 285.259 536.5 281C534.352 278.8 532.933 277 533.347 277C535.451 277 540.218 280.44 543.885 284.607C548.116 289.413 549.162 289.148 546.474 283.95C545.635 282.328 545.298 281 545.724 281C546.67 281 551.177 286.571 553.004 289.997C554.907 293.568 555.339 291.013 553.657 286.13C552.874 283.859 552.454 282 552.723 282C553.297 282 556.928 286.424 558.811 289.417C560.018 291.337 560.079 291.245 559.586 288.25C558.856 283.824 560.274 284.161 562.589 288.964C564.444 292.81 564.515 292.85 565 290.331L565.5 287.736L568.146 291.459C569.601 293.507 573.407 297.887 576.603 301.192C591.438 316.528 605.429 325.494 622.203 330.416C626.767 331.755 632.469 333.559 634.876 334.425C642.077 337.017 648.284 335.977 651.945 331.566C652.726 330.625 654.832 330 657.218 330C668.233 330 674.145 317.626 667.643 308.183C662.423 300.602 656.983 275.36 656.278 255.446C655.772 241.166 655.876 240.009 658.303 232.946C666.699 208.518 665.653 178.361 655.623 155.683C654.241 152.557 652.84 150 652.51 150C652.18 150 652.157 151.688 652.459 153.75C652.762 155.813 651.455 153.086 649.556 147.69C645.574 136.38 640.041 124 638.969 124C638.565 124 638.878 125.87 639.666 128.157C640.454 130.443 640.939 133.255 640.746 134.407C640.501 135.858 639.909 134.954 638.812 131.458C636.762 124.921 629.747 110.993 624.983 104C622.921 100.975 618.903 96.25 616.053 93.5C613.203 90.75 609.95 86.733 608.825 84.573C601.099 69.746 583.788 61.599 568 65.361ZM416.5 406.348C454.754 428.625 461.084 433.433 471.235 447.925L472.902 450.306L478.796 444.849C485.831 438.337 501.058 426.874 509.765 421.537C513.211 419.425 515.831 417.498 515.588 417.254C515.344 417.011 501.5 415.088 484.822 412.982C468.145 410.875 446.21 407.993 436.079 406.576C425.947 405.159 416.497 404.004 415.079 404.009C412.71 404.018 412.826 404.209 416.5 406.348Z" fill="#1D427B"/>
</g>
<defs>
<clipPath id="clip0_1_2">
<rect width="874" height="867" fill="white"/>
</clipPath>
</defs>
</svg>
