<svg width="827" height="789" viewBox="0 0 827 789" fill="none" xmlns="http://www.w3.org/2000/svg">
<g clip-path="url(#clip0_1_10)">
<path d="M-24.9941 393L-24.9873 837H-25V-51L-24.9941 393ZM543.004 14.3613C558.792 10.5993 576.103 18.7462 583.829 33.5732C584.954 35.7332 588.207 39.7501 591.057 42.5C593.907 45.25 597.925 49.975 599.987 53C604.751 59.993 611.766 73.9211 613.816 80.458C614.913 83.9537 615.505 84.8579 615.75 83.4072C615.943 82.2553 615.458 79.4432 614.67 77.1572C613.882 74.8709 613.569 73.0011 613.973 73C615.045 73 620.579 85.3804 624.561 96.6904C626.459 102.086 627.766 104.813 627.463 102.75C627.161 100.689 627.184 99.0012 627.514 99C627.844 99 629.245 101.557 630.627 104.683C640.657 127.361 641.703 157.518 633.307 181.946C630.88 189.009 630.776 190.167 631.282 204.446C631.987 224.36 637.428 249.602 642.647 257.183C649.149 266.626 643.237 279 632.222 279C629.836 279 627.73 279.625 626.949 280.566C623.288 284.977 617.081 286.017 609.88 283.425C607.473 282.559 601.771 280.755 597.207 279.416C580.433 274.494 566.442 265.528 551.607 250.192C548.412 246.887 544.605 242.507 543.15 240.459L540.504 236.736L540.004 239.331C539.519 241.85 539.448 241.81 537.593 237.964C535.278 233.161 533.86 232.824 534.59 237.25C535.083 240.245 535.022 240.337 533.815 238.417C531.933 235.425 528.303 231.003 527.728 231C527.459 231 527.878 232.859 528.661 235.13C530.343 240.013 529.911 242.568 528.008 238.997C526.181 235.572 521.676 230.002 520.729 230C520.303 230 520.64 231.328 521.479 232.95C524.166 238.148 523.12 238.413 518.889 233.607C515.222 229.44 510.455 226 508.351 226C507.938 226.001 509.357 227.801 511.504 230C515.663 234.259 515.517 235.177 511.158 232.166C506.947 229.255 500.308 227 495.952 227C487.452 227 479.074 233.32 476.903 241.368C475.487 246.619 476.371 254.28 478.797 257.785C482.319 262.873 482.459 263.314 480.168 262.088C479.025 261.476 477.634 260.193 477.077 259.238C476.52 258.282 476.051 257.982 476.034 258.57C475.984 260.368 482.919 267.846 487.664 271.11C492.272 274.28 492.99 276.054 488.84 274.014C486.595 272.91 486.601 272.945 489.004 274.902C490.379 276.022 499.829 281.177 510.004 286.356C539.079 301.157 571.29 313.435 606.254 323.044C635.391 331.051 652.262 333.909 670.796 333.974C685.242 334.025 700.352 338.814 705.096 344.844C708.161 348.74 707.304 349.4 703.254 346.262C699.176 343.103 693.272 340.399 692.385 341.285C692.08 341.591 693.107 342.658 694.667 343.657C700.634 347.479 701.918 350.558 696.342 347.675C693.612 346.263 689.779 345.641 685.504 345.917C683.95 346.017 684.332 346.526 687.214 348.196C692.531 351.279 692.821 352.919 687.932 352.264C681.153 351.354 683.271 354.181 692.172 357.922C702.863 362.415 723.379 374.791 734.571 383.498C747.071 393.224 768.363 414.71 776.689 426C798.979 456.227 812.581 489.173 818.594 527.5C820.97 542.641 820.986 574.423 818.625 589.5C812.277 630.051 797.037 665.177 772.327 696.208C732.261 746.524 672.563 776.481 608.004 778.666C528.043 781.373 454.213 741.569 412.159 673.08C375.806 613.876 369.951 539.951 396.445 474.659C399.737 466.546 399.94 465.476 398.913 461.659C396.197 451.564 389.891 444.77 379.924 441.201C364.664 435.737 353.676 429.288 341.778 418.814L335.053 412.892L328.778 417.129C305.325 432.968 281.701 457.75 271.416 477.306C264.78 489.922 264.951 501.728 271.966 515.331C274.186 519.636 276.002 523.432 276.004 523.768C276.004 524.102 274.654 523.081 273.004 521.5C269.804 518.435 269 519.122 271.541 522.749C274.036 526.312 279.192 537.138 278.653 537.685C278.378 537.959 276.929 536.333 275.433 534.071C273.936 531.811 272.537 530.137 272.322 530.349C272.107 530.563 273.559 534.439 275.547 538.961C287.068 565.165 297.252 608.053 301.967 650.224C304.129 669.564 306.592 680.709 311.09 691.5L314.008 698.5L311.506 695.694C308.132 691.911 308.353 693.937 312.034 700.554C315.286 706.398 315.288 707.295 312.043 703.811C309.261 700.825 309.472 702.751 312.397 707.058C317.574 714.676 327.663 719.182 344.504 721.398C350.554 722.194 357.529 723.737 360.004 724.826C365.453 727.223 370.621 731.689 371.498 734.757C372.211 737.252 370.894 738.72 360.067 747.5C356.676 750.25 351.787 754.301 349.203 756.502C341.798 762.809 338.796 764.619 334.504 765.369C332.304 765.753 326.454 766.788 321.504 767.67C308.451 769.995 277.215 769.959 266.504 767.606C255.843 765.264 248.22 762.724 240.605 758.975C229.642 753.578 227.82 751.481 222.631 738.285C220.082 731.803 215.102 720.732 211.565 713.681C205.401 701.393 205.185 698.523 211.139 708C215.566 715.047 214.496 711.286 209.003 700.498C198.451 679.773 178.853 657.883 157.252 642.693C154.363 640.663 151.736 639 151.413 639C151.091 639 155.817 643.95 161.916 650.001C168.014 656.051 173.004 661.67 173.004 662.486C173.003 663.304 170.416 665.282 167.254 666.885C160.468 670.323 149.622 678.099 143.131 684.181C140.586 686.565 137.63 689.187 136.562 690.008C134.838 691.332 134.718 691.331 135.491 690C135.971 689.175 137.911 686.587 139.804 684.25C141.695 681.912 142.829 680.001 142.321 680C141.154 680 136.431 685.021 131.503 691.5C129.412 694.25 127.951 695.825 128.256 695C128.562 694.175 129.117 692.6 129.49 691.5L130.167 689.5L128.473 691.5C127.541 692.6 125.908 695.413 124.845 697.75C122.479 702.947 121.556 703.199 122.456 698.402C123.463 693.037 121.359 695.066 119.53 701.224C114.549 717.996 123.282 731.955 142.192 737.452C152.684 740.503 157.631 745.882 152.361 748.51C151.182 749.097 149.607 750.064 148.861 750.659C148.114 751.253 143.004 753.665 137.504 756.018C125.108 761.322 116.974 762.131 102.418 759.51C87.7431 756.868 76.9288 751.095 66.0039 740.068C56.9819 730.963 51.6777 722.895 45.5557 708.963C38.9518 693.933 39.6753 678.842 47.4902 668.575C52.2722 662.292 52.5515 661.595 49.4775 663.609C46.714 665.42 46.7094 665.418 47.8604 663.268C48.4557 662.156 49.341 660.991 49.8975 660.573L50.1104 660.427C50.6644 660.013 51.5286 658.888 52.0977 657.824C52.8976 656.33 52.8994 655.948 52.1045 656.438C49.8795 657.814 51.1567 655.098 57.7617 644.423C65.2067 632.388 72.0341 621.305 76.2471 614.413L78.9893 609.926L75.2471 606.774C52.0181 587.21 35.8321 561.073 27.4541 529.598C24.1171 517.06 21.0325 495.705 20.9385 484.5C20.8525 474.172 19.2537 475.391 18.9717 486C18.8157 491.87 18.7147 492.161 17.9277 489C17.4487 487.075 17.2627 478.3 17.5137 469.5C17.8537 457.563 17.7149 454.501 16.9629 457.441C15.089 464.774 14.7511 462.546 15.4541 447.5C20.4501 340.637 64.599 243.419 144.458 163.425C160.487 147.369 173.853 135.044 183.959 127C186.378 125.075 190.19 121.968 192.43 120.096C203.62 110.745 235.174 88.875 252.504 78.459C256.904 75.814 266.042 70.7548 272.811 67.2148C279.579 63.6758 284.941 60.6027 284.725 60.3867C283.971 59.6373 272.994 63.9054 264.028 68.4336C259.067 70.9399 255.006 72.785 255.004 72.5332C255.004 72.2812 257.77 70.1964 261.15 67.9014C267.177 63.8084 279.601 57.6342 293.504 51.8223L300.504 48.8965L295.544 49.541C292.816 49.895 287.641 51.2488 284.044 52.5488C278.26 54.6398 277.793 54.6911 280.004 52.9922C282.914 50.7552 297.623 45.2153 310.443 41.5273C315.359 40.1134 319.634 38.6807 319.943 38.3447C320.494 37.7424 309.833 38.6552 305.004 39.624C299.036 40.823 306.162 38.0379 316.504 35.1299C369.657 20.1869 450.494 13.6318 516.268 18.9297C526.004 19.7147 527.53 19.6012 532.268 17.7354C535.148 16.6004 539.979 15.0823 543.004 14.3613ZM390.083 353.009C387.714 353.018 387.83 353.209 391.504 355.348C429.758 377.625 436.088 382.433 446.239 396.925L447.906 399.306L453.8 393.849C460.835 387.337 476.062 375.874 484.769 370.537C488.215 368.425 490.835 366.498 490.592 366.254C490.342 366.01 476.5 364.088 459.826 361.982C443.149 359.875 421.214 356.993 411.083 355.576C400.951 354.159 391.501 353.004 390.083 353.009Z" fill="#1D427B"/>
</g>
<defs>
<clipPath id="clip0_1_10">
<rect width="827" height="789" fill="white"/>
</clipPath>
</defs>
</svg>
