<svg xmlns="http://www.w3.org/2000/svg" width="959" height="960" viewBox="0 0 959 960" version="1.1"><path d="M 0 480.001 L 0 960.002 479.750 959.751 L 959.500 959.500 959.751 479.750 L 960.002 0 480.001 0 L 0 0 0 480.001 M 0.496 480.500 C 0.496 744.500, 0.610 852.351, 0.750 720.168 C 0.890 587.986, 0.890 371.986, 0.750 240.168 C 0.610 108.351, 0.496 216.500, 0.496 480.500 M 35.002 483 L 35.009 927 479.504 927 L 924 927 924 483 L 924 39 479.498 39 L 34.996 39 35.002 483 M 603 104.361 C 599.975 105.082, 595.144 106.600, 592.264 107.735 C 587.526 109.601, 586.001 109.715, 576.264 108.930 C 510.490 103.632, 429.653 110.187, 376.500 125.130 C 366.158 128.038, 359.032 130.823, 365 129.624 C 369.830 128.655, 380.494 127.742, 379.939 128.345 C 379.630 128.681, 375.355 130.113, 370.439 131.527 C 357.619 135.215, 342.910 140.755, 340 142.992 C 337.789 144.691, 338.256 144.640, 344.040 142.549 C 347.637 141.249, 352.812 139.895, 355.540 139.541 L 360.500 138.896 353.500 141.822 C 339.597 147.634, 327.173 153.808, 321.146 157.901 C 317.766 160.196, 315 162.281, 315 162.533 C 315 162.786, 319.061 160.941, 324.024 158.434 C 332.991 153.905, 343.970 149.636, 344.721 150.387 C 344.937 150.603, 339.575 153.676, 332.807 157.215 C 326.038 160.755, 316.900 165.814, 312.500 168.459 C 295.170 178.875, 263.616 200.745, 252.426 210.096 C 250.186 211.968, 246.374 215.075, 243.955 217 C 233.849 225.044, 220.483 237.369, 204.454 253.425 C 124.595 333.419, 80.446 430.637, 75.450 537.500 C 74.747 552.546, 75.085 554.774, 76.959 547.441 C 77.711 544.501, 77.850 547.563, 77.510 559.500 C 77.259 568.300, 77.445 577.075, 77.924 579 C 78.711 582.161, 78.812 581.870, 78.968 576 C 79.250 565.391, 80.848 564.172, 80.934 574.500 C 81.028 585.705, 84.113 607.060, 87.450 619.598 C 95.828 651.073, 112.014 677.210, 135.243 696.774 L 138.985 699.926 136.243 704.413 C 132.030 711.305, 125.203 722.388, 117.758 734.423 C 111.153 745.098, 109.875 747.814, 112.100 746.438 C 112.895 745.947, 112.894 746.330, 112.094 747.824 C 111.487 748.959, 110.544 750.164, 110 750.500 C 109.456 750.836, 108.491 752.082, 107.856 753.268 C 106.705 755.419, 106.710 755.420, 109.474 753.609 C 112.548 751.595, 112.268 752.292, 107.486 758.575 C 99.671 768.842, 98.948 783.933, 105.552 798.963 C 111.674 812.895, 116.978 820.963, 126 830.068 C 136.925 841.095, 147.739 846.868, 162.414 849.510 C 176.970 852.131, 185.104 851.322, 197.500 846.018 C 203 843.665, 208.110 841.253, 208.857 840.659 C 209.603 840.064, 211.178 839.097, 212.357 838.510 C 217.627 835.882, 212.680 830.503, 202.188 827.452 C 183.278 821.955, 174.545 807.996, 179.526 791.224 C 181.355 785.066, 183.459 783.037, 182.452 788.402 C 181.552 793.199, 182.475 792.947, 184.841 787.750 C 185.904 785.413, 187.537 782.600, 188.469 781.500 L 190.163 779.500 189.486 781.500 C 189.113 782.600, 188.558 784.175, 188.252 785 C 187.947 785.825, 189.408 784.250, 191.499 781.500 C 196.427 775.021, 201.150 770, 202.317 770 C 202.825 770, 201.692 771.912, 199.800 774.250 C 197.907 776.587, 195.967 779.175, 195.487 780 C 194.714 781.331, 194.834 781.332, 196.558 780.008 C 197.626 779.187, 200.582 776.565, 203.127 774.181 C 209.618 768.099, 220.464 760.323, 227.250 756.885 C 230.412 755.282, 233 753.303, 233 752.486 C 233 751.670, 228.010 746.051, 221.912 740.001 C 215.813 733.950, 211.087 729, 211.409 729 C 211.732 729, 214.359 730.662, 217.248 732.693 C 238.849 747.883, 258.447 769.773, 268.999 790.498 C 274.492 801.286, 275.562 805.047, 271.135 798 C 265.181 788.523, 265.396 791.393, 271.561 803.681 C 275.098 810.732, 280.078 821.803, 282.627 828.285 C 287.816 841.481, 289.638 843.578, 300.601 848.975 C 308.216 852.724, 315.839 855.264, 326.500 857.606 C 337.211 859.959, 368.447 859.995, 381.500 857.670 C 386.450 856.788, 392.300 855.753, 394.500 855.369 C 398.792 854.619, 401.794 852.809, 409.199 846.502 C 411.783 844.301, 416.672 840.250, 420.063 837.500 C 430.890 828.720, 432.207 827.252, 431.494 824.757 C 430.617 821.689, 425.449 817.223, 420 814.826 C 417.525 813.737, 410.550 812.194, 404.500 811.398 C 387.659 809.182, 377.570 804.676, 372.393 797.058 C 369.467 792.751, 369.257 790.825, 372.039 793.811 C 375.284 797.295, 375.282 796.398, 372.030 790.554 C 368.349 783.937, 368.128 781.911, 371.502 785.694 L 374.004 788.500 371.086 781.500 C 366.588 770.709, 364.125 759.564, 361.963 740.224 C 357.248 698.053, 347.064 655.165, 335.543 628.961 C 333.555 624.439, 332.103 620.563, 332.318 620.349 C 332.532 620.135, 333.932 621.810, 335.429 624.071 C 336.925 626.333, 338.374 627.959, 338.649 627.685 C 339.190 627.143, 334.033 616.313, 331.537 612.749 C 328.996 609.122, 329.800 608.435, 333 611.500 C 334.650 613.081, 336 614.102, 336 613.768 C 336 613.435, 334.183 609.638, 331.962 605.331 C 324.947 591.728, 324.776 579.922, 331.412 567.306 C 341.697 547.750, 365.321 522.968, 388.774 507.129 L 395.049 502.892 401.774 508.814 C 413.672 519.288, 424.660 525.737, 439.920 531.201 C 449.887 534.770, 456.193 541.564, 458.909 551.659 C 459.936 555.476, 459.733 556.546, 456.441 564.659 C 429.947 629.951, 435.802 703.876, 472.155 763.080 C 514.209 831.569, 588.039 871.373, 668 868.666 C 732.559 866.481, 792.257 836.524, 832.323 786.208 C 857.033 755.177, 872.273 720.051, 878.621 679.500 C 880.982 664.423, 880.966 632.641, 878.590 617.500 C 872.577 579.173, 858.975 546.227, 836.685 516 C 828.359 504.710, 807.067 483.224, 794.567 473.498 C 783.375 464.791, 762.859 452.415, 752.168 447.922 C 743.267 444.181, 741.149 441.354, 747.928 442.264 C 752.817 442.919, 752.527 441.279, 747.210 438.196 C 744.328 436.526, 743.946 436.017, 745.500 435.917 C 749.775 435.641, 753.608 436.263, 756.338 437.675 C 761.914 440.558, 760.630 437.479, 754.663 433.657 C 753.103 432.658, 752.076 431.591, 752.381 431.285 C 753.268 430.399, 759.172 433.103, 763.250 436.262 C 767.300 439.400, 768.157 438.740, 765.092 434.844 C 760.349 428.814, 745.238 424.025, 730.792 423.974 C 712.258 423.909, 695.387 421.051, 666.250 413.044 C 631.286 403.435, 599.075 391.157, 570 376.356 C 559.825 371.176, 550.375 366.022, 549 364.902 C 546.597 362.945, 546.591 362.910, 548.836 364.014 C 552.986 366.054, 552.268 364.280, 547.660 361.110 C 542.915 357.845, 535.979 350.367, 536.030 348.570 C 536.047 347.982, 536.516 348.282, 537.073 349.238 C 537.630 350.193, 539.021 351.476, 540.164 352.088 C 542.455 353.314, 542.315 352.873, 538.793 347.785 C 536.367 344.280, 535.483 336.619, 536.899 331.368 C 539.070 323.320, 547.448 317, 555.948 317 C 560.304 317, 566.943 319.255, 571.154 322.166 C 575.513 325.177, 575.659 324.259, 571.500 320 C 569.352 317.800, 567.933 316, 568.347 316 C 570.451 316, 575.218 319.440, 578.885 323.607 C 583.116 328.413, 584.162 328.148, 581.474 322.950 C 580.635 321.328, 580.298 320, 580.724 320 C 581.670 320, 586.177 325.571, 588.004 328.997 C 589.907 332.568, 590.339 330.013, 588.657 325.130 C 587.874 322.859, 587.454 321, 587.723 321 C 588.297 321, 591.928 325.424, 593.811 328.417 C 595.018 330.337, 595.079 330.245, 594.586 327.250 C 593.856 322.824, 595.274 323.161, 597.589 327.964 C 599.444 331.810, 599.515 331.850, 600 329.331 L 600.500 326.736 603.146 330.459 C 604.601 332.507, 608.407 336.887, 611.603 340.192 C 626.438 355.528, 640.429 364.494, 657.203 369.416 C 661.767 370.755, 667.469 372.559, 669.876 373.425 C 677.077 376.017, 683.284 374.977, 686.945 370.566 C 687.726 369.625, 689.832 369, 692.218 369 C 703.233 369, 709.145 356.626, 702.643 347.183 C 697.423 339.602, 691.983 314.360, 691.278 294.446 C 690.772 280.166, 690.876 279.009, 693.303 271.946 C 701.699 247.518, 700.653 217.361, 690.623 194.683 C 689.241 191.557, 687.840 189, 687.510 189 C 687.180 189, 687.157 190.688, 687.459 192.750 C 687.762 194.813, 686.455 192.086, 684.556 186.690 C 680.574 175.380, 675.041 163, 673.969 163 C 673.565 163, 673.878 164.870, 674.666 167.157 C 675.454 169.443, 675.939 172.255, 675.746 173.407 C 675.501 174.858, 674.909 173.954, 673.812 170.458 C 671.762 163.921, 664.747 149.993, 659.983 143 C 657.921 139.975, 653.903 135.250, 651.053 132.500 C 648.203 129.750, 644.950 125.733, 643.825 123.573 C 636.099 108.746, 618.788 100.599, 603 104.361 M 451.500 445.348 C 489.754 467.625, 496.084 472.433, 506.235 486.925 L 507.902 489.306 513.796 483.849 C 520.831 477.337, 536.058 465.874, 544.765 460.537 C 548.211 458.425, 550.831 456.498, 550.588 456.254 C 550.344 456.011, 536.500 454.088, 519.822 451.982 C 503.145 449.875, 481.210 446.993, 471.079 445.576 C 460.947 444.159, 451.497 443.004, 450.079 443.009 C 447.710 443.018, 447.826 443.209, 451.500 445.348" stroke="none" fill="#ffffff" fill-rule="evenodd"/><path d="M 35.002 483 L 35.009 927 479.504 927 L 924 927 924 483 L 924 39 479.498 39 L 34.996 39 35.002 483 M 603 104.361 C 599.975 105.082, 595.144 106.600, 592.264 107.735 C 587.526 109.601, 586.001 109.715, 576.264 108.930 C 510.490 103.632, 429.653 110.187, 376.500 125.130 C 366.158 128.038, 359.032 130.823, 365 129.624 C 369.830 128.655, 380.494 127.742, 379.939 128.345 C 379.630 128.681, 375.355 130.113, 370.439 131.527 C 357.619 135.215, 342.910 140.755, 340 142.992 C 337.789 144.691, 338.256 144.640, 344.040 142.549 C 347.637 141.249, 352.812 139.895, 355.540 139.541 L 360.500 138.896 353.500 141.822 C 339.597 147.634, 327.173 153.808, 321.146 157.901 C 317.766 160.196, 315 162.281, 315 162.533 C 315 162.786, 319.061 160.941, 324.024 158.434 C 332.991 153.905, 343.970 149.636, 344.721 150.387 C 344.937 150.603, 339.575 153.676, 332.807 157.215 C 326.038 160.755, 316.900 165.814, 312.500 168.459 C 295.170 178.875, 263.616 200.745, 252.426 210.096 C 250.186 211.968, 246.374 215.075, 243.955 217 C 233.849 225.044, 220.483 237.369, 204.454 253.425 C 124.595 333.419, 80.446 430.637, 75.450 537.500 C 74.747 552.546, 75.085 554.774, 76.959 547.441 C 77.711 544.501, 77.850 547.563, 77.510 559.500 C 77.259 568.300, 77.445 577.075, 77.924 579 C 78.711 582.161, 78.812 581.870, 78.968 576 C 79.250 565.391, 80.848 564.172, 80.934 574.500 C 81.028 585.705, 84.113 607.060, 87.450 619.598 C 95.828 651.073, 112.014 677.210, 135.243 696.774 L 138.985 699.926 136.243 704.413 C 132.030 711.305, 125.203 722.388, 117.758 734.423 C 111.153 745.098, 109.875 747.814, 112.100 746.438 C 112.895 745.947, 112.894 746.330, 112.094 747.824 C 111.487 748.959, 110.544 750.164, 110 750.500 C 109.456 750.836, 108.491 752.082, 107.856 753.268 C 106.705 755.419, 106.710 755.420, 109.474 753.609 C 112.548 751.595, 112.268 752.292, 107.486 758.575 C 99.671 768.842, 98.948 783.933, 105.552 798.963 C 111.674 812.895, 116.978 820.963, 126 830.068 C 136.925 841.095, 147.739 846.868, 162.414 849.510 C 176.970 852.131, 185.104 851.322, 197.500 846.018 C 203 843.665, 208.110 841.253, 208.857 840.659 C 209.603 840.064, 211.178 839.097, 212.357 838.510 C 217.627 835.882, 212.680 830.503, 202.188 827.452 C 183.278 821.955, 174.545 807.996, 179.526 791.224 C 181.355 785.066, 183.459 783.037, 182.452 788.402 C 181.552 793.199, 182.475 792.947, 184.841 787.750 C 185.904 785.413, 187.537 782.600, 188.469 781.500 L 190.163 779.500 189.486 781.500 C 189.113 782.600, 188.558 784.175, 188.252 785 C 187.947 785.825, 189.408 784.250, 191.499 781.500 C 196.427 775.021, 201.150 770, 202.317 770 C 202.825 770, 201.692 771.912, 199.800 774.250 C 197.907 776.587, 195.967 779.175, 195.487 780 C 194.714 781.331, 194.834 781.332, 196.558 780.008 C 197.626 779.187, 200.582 776.565, 203.127 774.181 C 209.618 768.099, 220.464 760.323, 227.250 756.885 C 230.412 755.282, 233 753.303, 233 752.486 C 233 751.670, 228.010 746.051, 221.912 740.001 C 215.813 733.950, 211.087 729, 211.409 729 C 211.732 729, 214.359 730.662, 217.248 732.693 C 238.849 747.883, 258.447 769.773, 268.999 790.498 C 274.492 801.286, 275.562 805.047, 271.135 798 C 265.181 788.523, 265.396 791.393, 271.561 803.681 C 275.098 810.732, 280.078 821.803, 282.627 828.285 C 287.816 841.481, 289.638 843.578, 300.601 848.975 C 308.216 852.724, 315.839 855.264, 326.500 857.606 C 337.211 859.959, 368.447 859.995, 381.500 857.670 C 386.450 856.788, 392.300 855.753, 394.500 855.369 C 398.792 854.619, 401.794 852.809, 409.199 846.502 C 411.783 844.301, 416.672 840.250, 420.063 837.500 C 430.890 828.720, 432.207 827.252, 431.494 824.757 C 430.617 821.689, 425.449 817.223, 420 814.826 C 417.525 813.737, 410.550 812.194, 404.500 811.398 C 387.659 809.182, 377.570 804.676, 372.393 797.058 C 369.467 792.751, 369.257 790.825, 372.039 793.811 C 375.284 797.295, 375.282 796.398, 372.030 790.554 C 368.349 783.937, 368.128 781.911, 371.502 785.694 L 374.004 788.500 371.086 781.500 C 366.588 770.709, 364.125 759.564, 361.963 740.224 C 357.248 698.053, 347.064 655.165, 335.543 628.961 C 333.555 624.439, 332.103 620.563, 332.318 620.349 C 332.532 620.135, 333.932 621.810, 335.429 624.071 C 336.925 626.333, 338.374 627.959, 338.649 627.685 C 339.190 627.143, 334.033 616.313, 331.537 612.749 C 328.996 609.122, 329.800 608.435, 333 611.500 C 334.650 613.081, 336 614.102, 336 613.768 C 336 613.435, 334.183 609.638, 331.962 605.331 C 324.947 591.728, 324.776 579.922, 331.412 567.306 C 341.697 547.750, 365.321 522.968, 388.774 507.129 L 395.049 502.892 401.774 508.814 C 413.672 519.288, 424.660 525.737, 439.920 531.201 C 449.887 534.770, 456.193 541.564, 458.909 551.659 C 459.936 555.476, 459.733 556.546, 456.441 564.659 C 429.947 629.951, 435.802 703.876, 472.155 763.080 C 514.209 831.569, 588.039 871.373, 668 868.666 C 732.559 866.481, 792.257 836.524, 832.323 786.208 C 857.033 755.177, 872.273 720.051, 878.621 679.500 C 880.982 664.423, 880.966 632.641, 878.590 617.500 C 872.577 579.173, 858.975 546.227, 836.685 516 C 828.359 504.710, 807.067 483.224, 794.567 473.498 C 783.375 464.791, 762.859 452.415, 752.168 447.922 C 743.267 444.181, 741.149 441.354, 747.928 442.264 C 752.817 442.919, 752.527 441.279, 747.210 438.196 C 744.328 436.526, 743.946 436.017, 745.500 435.917 C 749.775 435.641, 753.608 436.263, 756.338 437.675 C 761.914 440.558, 760.630 437.479, 754.663 433.657 C 753.103 432.658, 752.076 431.591, 752.381 431.285 C 753.268 430.399, 759.172 433.103, 763.250 436.262 C 767.300 439.400, 768.157 438.740, 765.092 434.844 C 760.349 428.814, 745.238 424.025, 730.792 423.974 C 712.258 423.909, 695.387 421.051, 666.250 413.044 C 631.286 403.435, 599.075 391.157, 570 376.356 C 559.825 371.176, 550.375 366.022, 549 364.902 C 546.597 362.945, 546.591 362.910, 548.836 364.014 C 552.986 366.054, 552.268 364.280, 547.660 361.110 C 542.915 357.845, 535.979 350.367, 536.030 348.570 C 536.047 347.982, 536.516 348.282, 537.073 349.238 C 537.630 350.193, 539.021 351.476, 540.164 352.088 C 542.455 353.314, 542.315 352.873, 538.793 347.785 C 536.367 344.280, 535.483 336.619, 536.899 331.368 C 539.070 323.320, 547.448 317, 555.948 317 C 560.304 317, 566.943 319.255, 571.154 322.166 C 575.513 325.177, 575.659 324.259, 571.500 320 C 569.352 317.800, 567.933 316, 568.347 316 C 570.451 316, 575.218 319.440, 578.885 323.607 C 583.116 328.413, 584.162 328.148, 581.474 322.950 C 580.635 321.328, 580.298 320, 580.724 320 C 581.670 320, 586.177 325.571, 588.004 328.997 C 589.907 332.568, 590.339 330.013, 588.657 325.130 C 587.874 322.859, 587.454 321, 587.723 321 C 588.297 321, 591.928 325.424, 593.811 328.417 C 595.018 330.337, 595.079 330.245, 594.586 327.250 C 593.856 322.824, 595.274 323.161, 597.589 327.964 C 599.444 331.810, 599.515 331.850, 600 329.331 L 600.500 326.736 603.146 330.459 C 604.601 332.507, 608.407 336.887, 611.603 340.192 C 626.438 355.528, 640.429 364.494, 657.203 369.416 C 661.767 370.755, 667.469 372.559, 669.876 373.425 C 677.077 376.017, 683.284 374.977, 686.945 370.566 C 687.726 369.625, 689.832 369, 692.218 369 C 703.233 369, 709.145 356.626, 702.643 347.183 C 697.423 339.602, 691.983 314.360, 691.278 294.446 C 690.772 280.166, 690.876 279.009, 693.303 271.946 C 701.699 247.518, 700.653 217.361, 690.623 194.683 C 689.241 191.557, 687.840 189, 687.510 189 C 687.180 189, 687.157 190.688, 687.459 192.750 C 687.762 194.813, 686.455 192.086, 684.556 186.690 C 680.574 175.380, 675.041 163, 673.969 163 C 673.565 163, 673.878 164.870, 674.666 167.157 C 675.454 169.443, 675.939 172.255, 675.746 173.407 C 675.501 174.858, 674.909 173.954, 673.812 170.458 C 671.762 163.921, 664.747 149.993, 659.983 143 C 657.921 139.975, 653.903 135.250, 651.053 132.500 C 648.203 129.750, 644.950 125.733, 643.825 123.573 C 636.099 108.746, 618.788 100.599, 603 104.361 M 451.500 445.348 C 489.754 467.625, 496.084 472.433, 506.235 486.925 L 507.902 489.306 513.796 483.849 C 520.831 477.337, 536.058 465.874, 544.765 460.537 C 548.211 458.425, 550.831 456.498, 550.588 456.254 C 550.344 456.011, 536.500 454.088, 519.822 451.982 C 503.145 449.875, 481.210 446.993, 471.079 445.576 C 460.947 444.159, 451.497 443.004, 450.079 443.009 C 447.710 443.018, 447.826 443.209, 451.500 445.348" stroke="none" fill="#1d427b" fill-rule="evenodd"/></svg>