<svg width="874" height="867" viewBox="0 0 874 867" fill="none" xmlns="http://www.w3.org/2000/svg">
<g id="logo-midewest-waste-redraw-with-text-dumpster-tag-white-on-blue" clip-path="url(#clip0_1_2)">
<g id="Group 1">
<path id="Vector" fill-rule="evenodd" clip-rule="evenodd" d="M-35 441.001V921.002L444.75 920.751L924.5 920.5L924.751 440.75L925.002 -39H445.001H-35V441.001ZM-34.504 441.5C-34.504 705.5 -34.39 813.351 -34.25 681.168C-34.11 548.986 -34.11 332.986 -34.25 201.168C-34.39 69.351 -34.504 177.5 -34.504 441.5ZM0.0019989 444L0.00899887 888H444.504H889V444V0H444.498H-0.00400162L0.0019989 444ZM568 65.361C564.975 66.082 560.144 67.6 557.264 68.735C552.526 70.601 551.001 70.715 541.264 69.93C475.49 64.632 394.653 71.187 341.5 86.13C331.158 89.038 324.032 91.823 330 90.624C334.83 89.655 345.494 88.742 344.939 89.345C344.63 89.681 340.355 91.113 335.439 92.527C322.619 96.215 307.91 101.755 305 103.992C302.789 105.691 303.256 105.64 309.04 103.549C312.637 102.249 317.812 100.895 320.54 100.541L325.5 99.896L318.5 102.822C304.597 108.634 292.173 114.808 286.146 118.901C282.766 121.196 280 123.281 280 123.533C280 123.786 284.061 121.941 289.024 119.434C297.991 114.905 308.97 110.636 309.721 111.387C309.937 111.603 304.575 114.676 297.807 118.215C291.038 121.755 281.9 126.814 277.5 129.459C260.17 139.875 228.616 161.745 217.426 171.096C215.186 172.968 211.374 176.075 208.955 178C198.849 186.044 185.483 198.369 169.454 214.425C89.595 294.419 45.446 391.637 40.45 498.5C39.747 513.546 40.085 515.774 41.959 508.441C42.711 505.501 42.85 508.563 42.51 520.5C42.259 529.3 42.445 538.075 42.924 540C43.711 543.161 43.812 542.87 43.968 537C44.25 526.391 45.848 525.172 45.934 535.5C46.028 546.705 49.113 568.06 52.45 580.598C60.828 612.073 77.014 638.21 100.243 657.774L103.985 660.926L101.243 665.413C97.03 672.305 90.203 683.388 82.758 695.423C76.153 706.098 74.875 708.814 77.1 707.438C77.895 706.947 77.894 707.33 77.094 708.824C76.487 709.959 75.544 711.164 75 711.5C74.456 711.836 73.491 713.082 72.856 714.268C71.705 716.419 71.71 716.42 74.474 714.609C77.548 712.595 77.268 713.292 72.486 719.575C64.671 729.842 63.948 744.933 70.552 759.963C76.674 773.895 81.978 781.963 91 791.068C101.925 802.095 112.739 807.868 127.414 810.51C141.97 813.131 150.104 812.322 162.5 807.018C168 804.665 173.11 802.253 173.857 801.659C174.603 801.064 176.178 800.097 177.357 799.51C182.627 796.882 177.68 791.503 167.188 788.452C148.278 782.955 139.545 768.996 144.526 752.224C146.355 746.066 148.459 744.037 147.452 749.402C146.552 754.199 147.475 753.947 149.841 748.75C150.904 746.413 152.537 743.6 153.469 742.5L155.163 740.5L154.486 742.5C154.113 743.6 153.558 745.175 153.252 746C152.947 746.825 154.408 745.25 156.499 742.5C161.427 736.021 166.15 731 167.317 731C167.825 731 166.692 732.912 164.8 735.25C162.907 737.587 160.967 740.175 160.487 741C159.714 742.331 159.834 742.332 161.558 741.008C162.626 740.187 165.582 737.565 168.127 735.181C174.618 729.099 185.464 721.323 192.25 717.885C195.412 716.282 198 714.303 198 713.486C198 712.67 193.01 707.051 186.912 701.001C180.813 694.95 176.087 690 176.409 690C176.732 690 179.359 691.662 182.248 693.693C203.849 708.883 223.447 730.773 233.999 751.498C239.492 762.286 240.562 766.047 236.135 759C230.181 749.523 230.396 752.393 236.561 764.681C240.098 771.732 245.078 782.803 247.627 789.285C252.816 802.481 254.638 804.578 265.601 809.975C273.216 813.724 280.839 816.264 291.5 818.606C302.211 820.959 333.447 820.995 346.5 818.67C351.45 817.788 357.3 816.753 359.5 816.369C363.792 815.619 366.794 813.809 374.199 807.502C376.783 805.301 381.672 801.25 385.063 798.5C395.89 789.72 397.207 788.252 396.494 785.757C395.617 782.689 390.449 778.223 385 775.826C382.525 774.737 375.55 773.194 369.5 772.398C352.659 770.182 342.57 765.676 337.393 758.058C334.467 753.751 334.257 751.825 337.039 754.811C340.284 758.295 340.282 757.398 337.03 751.554C333.349 744.937 333.128 742.911 336.502 746.694L339.004 749.5L336.086 742.5C331.588 731.709 329.125 720.564 326.963 701.224C322.248 659.053 312.064 616.165 300.543 589.961C298.555 585.439 297.103 581.563 297.318 581.349C297.532 581.135 298.932 582.81 300.429 585.071C301.925 587.333 303.374 588.959 303.649 588.685C304.19 588.143 299.033 577.313 296.537 573.749C293.996 570.122 294.8 569.435 298 572.5C299.65 574.081 301 575.102 301 574.768C301 574.435 299.183 570.638 296.962 566.331C289.947 552.728 289.776 540.922 296.412 528.306C306.697 508.75 330.321 483.968 353.774 468.129L360.049 463.892L366.774 469.814C378.672 480.288 389.66 486.737 404.92 492.201C414.887 495.77 421.193 502.564 423.909 512.659C424.936 516.476 424.733 517.546 421.441 525.659C394.947 590.951 400.802 664.876 437.155 724.08C479.209 792.569 553.039 832.373 633 829.666C697.559 827.481 757.257 797.524 797.323 747.208C822.033 716.177 837.273 681.051 843.621 640.5C845.982 625.423 845.966 593.641 843.59 578.5C837.577 540.173 823.975 507.227 801.685 477C793.359 465.71 772.067 444.224 759.567 434.498C748.375 425.791 727.859 413.415 717.168 408.922C708.267 405.181 706.149 402.354 712.928 403.264C717.817 403.919 717.527 402.279 712.21 399.196C709.328 397.526 708.946 397.017 710.5 396.917C714.775 396.641 718.608 397.263 721.338 398.675C726.914 401.558 725.63 398.479 719.663 394.657C718.103 393.658 717.076 392.591 717.381 392.285C718.268 391.399 724.172 394.103 728.25 397.262C732.3 400.4 733.157 399.74 730.092 395.844C725.349 389.814 710.238 385.025 695.792 384.974C677.258 384.909 660.387 382.051 631.25 374.044C596.286 364.435 564.075 352.157 535 337.356C524.825 332.176 515.375 327.022 514 325.902C511.597 323.945 511.591 323.91 513.836 325.014C517.986 327.054 517.268 325.28 512.66 322.11C507.915 318.845 500.979 311.367 501.03 309.57C501.047 308.982 501.516 309.282 502.073 310.238C502.63 311.193 504.021 312.476 505.164 313.088C507.455 314.314 507.315 313.873 503.793 308.785C501.367 305.28 500.483 297.619 501.899 292.368C504.07 284.32 512.448 278 520.948 278C525.304 278 531.943 280.255 536.154 283.166C540.513 286.177 540.659 285.259 536.5 281C534.352 278.8 532.933 277 533.347 277C535.451 277 540.218 280.44 543.885 284.607C548.116 289.413 549.162 289.148 546.474 283.95C545.635 282.328 545.298 281 545.724 281C546.67 281 551.177 286.571 553.004 289.997C554.907 293.568 555.339 291.013 553.657 286.13C552.874 283.859 552.454 282 552.723 282C553.297 282 556.928 286.424 558.811 289.417C560.018 291.337 560.079 291.245 559.586 288.25C558.856 283.824 560.274 284.161 562.589 288.964C564.444 292.81 564.515 292.85 565 290.331L565.5 287.736L568.146 291.459C569.601 293.507 573.407 297.887 576.603 301.192C591.438 316.528 605.429 325.494 622.203 330.416C626.767 331.755 632.469 333.559 634.876 334.425C642.077 337.017 648.284 335.977 651.945 331.566C652.726 330.625 654.832 330 657.218 330C668.233 330 674.145 317.626 667.643 308.183C662.423 300.602 656.983 275.36 656.278 255.446C655.772 241.166 655.876 240.009 658.303 232.946C666.699 208.518 665.653 178.361 655.623 155.683C654.241 152.557 652.84 150 652.51 150C652.18 150 652.157 151.688 652.459 153.75C652.762 155.813 651.455 153.086 649.556 147.69C645.574 136.38 640.041 124 638.969 124C638.565 124 638.878 125.87 639.666 128.157C640.454 130.443 640.939 133.255 640.746 134.407C640.501 135.858 639.909 134.954 638.812 131.458C636.762 124.921 629.747 110.993 624.983 104C622.921 100.975 618.903 96.25 616.053 93.5C613.203 90.75 609.95 86.733 608.825 84.573C601.099 69.746 583.788 61.599 568 65.361ZM416.5 406.348C454.754 428.625 461.084 433.433 471.235 447.925L472.902 450.306L478.796 444.849C485.831 438.337 501.058 426.874 509.765 421.537C513.211 419.425 515.831 417.498 515.588 417.254C515.344 417.011 501.5 415.088 484.822 412.982C468.145 410.875 446.21 407.993 436.079 406.576C425.947 405.159 416.497 404.004 415.079 404.009C412.71 404.018 412.826 404.209 416.5 406.348Z" fill="white"/>
<path id="Vector_2" fill-rule="evenodd" clip-rule="evenodd" d="M0.0019722 444L0.00897217 888H444.504H889V444V0H444.498H-0.00402832L0.0019722 444ZM568 65.361C564.975 66.082 560.144 67.6 557.264 68.735C552.526 70.601 551.001 70.715 541.264 69.93C475.49 64.632 394.653 71.187 341.5 86.13C331.158 89.038 324.032 91.823 330 90.624C334.83 89.655 345.494 88.742 344.939 89.345C344.63 89.681 340.355 91.113 335.439 92.527C322.619 96.215 307.91 101.755 305 103.992C302.789 105.691 303.256 105.64 309.04 103.549C312.637 102.249 317.812 100.895 320.54 100.541L325.5 99.896L318.5 102.822C304.597 108.634 292.173 114.808 286.146 118.901C282.766 121.196 280 123.281 280 123.533C280 123.786 284.061 121.941 289.024 119.434C297.991 114.905 308.97 110.636 309.721 111.387C309.937 111.603 304.575 114.676 297.807 118.215C291.038 121.755 281.9 126.814 277.5 129.459C260.17 139.875 228.616 161.745 217.426 171.096C215.186 172.968 211.374 176.075 208.955 178C198.849 186.044 185.483 198.369 169.454 214.425C89.595 294.419 45.446 391.637 40.45 498.5C39.747 513.546 40.085 515.774 41.959 508.441C42.711 505.501 42.85 508.563 42.51 520.5C42.259 529.3 42.445 538.075 42.924 540C43.711 543.161 43.812 542.87 43.968 537C44.25 526.391 45.848 525.172 45.934 535.5C46.028 546.705 49.113 568.06 52.45 580.598C60.828 612.073 77.014 638.21 100.243 657.774L103.985 660.926L101.243 665.413C97.03 672.305 90.203 683.388 82.758 695.423C76.153 706.098 74.875 708.814 77.1 707.438C77.895 706.947 77.894 707.33 77.094 708.824C76.487 709.959 75.544 711.164 75 711.5C74.456 711.836 73.491 713.082 72.856 714.268C71.705 716.419 71.71 716.42 74.474 714.609C77.548 712.595 77.268 713.292 72.486 719.575C64.671 729.842 63.948 744.933 70.552 759.963C76.674 773.895 81.978 781.963 91 791.068C101.925 802.095 112.739 807.868 127.414 810.51C141.97 813.131 150.104 812.322 162.5 807.018C168 804.665 173.11 802.253 173.857 801.659C174.603 801.064 176.178 800.097 177.357 799.51C182.627 796.882 177.68 791.503 167.188 788.452C148.278 782.955 139.545 768.996 144.526 752.224C146.355 746.066 148.459 744.037 147.452 749.402C146.552 754.199 147.475 753.947 149.841 748.75C150.904 746.413 152.537 743.6 153.469 742.5L155.163 740.5L154.486 742.5C154.113 743.6 153.558 745.175 153.252 746C152.947 746.825 154.408 745.25 156.499 742.5C161.427 736.021 166.15 731 167.317 731C167.825 731 166.692 732.912 164.8 735.25C162.907 737.587 160.967 740.175 160.487 741C159.714 742.331 159.834 742.332 161.558 741.008C162.626 740.187 165.582 737.565 168.127 735.181C174.618 729.099 185.464 721.323 192.25 717.885C195.412 716.282 198 714.303 198 713.486C198 712.67 193.01 707.051 186.912 701.001C180.813 694.95 176.087 690 176.409 690C176.732 690 179.359 691.662 182.248 693.693C203.849 708.883 223.447 730.773 233.999 751.498C239.492 762.286 240.562 766.047 236.135 759C230.181 749.523 230.396 752.393 236.561 764.681C240.098 771.732 245.078 782.803 247.627 789.285C252.816 802.481 254.638 804.578 265.601 809.975C273.216 813.724 280.839 816.264 291.5 818.606C302.211 820.959 333.447 820.995 346.5 818.67C351.45 817.788 357.3 816.753 359.5 816.369C363.792 815.619 366.794 813.809 374.199 807.502C376.783 805.301 381.672 801.25 385.063 798.5C395.89 789.72 397.207 788.252 396.494 785.757C395.617 782.689 390.449 778.223 385 775.826C382.525 774.737 375.55 773.194 369.5 772.398C352.659 770.182 342.57 765.676 337.393 758.058C334.467 753.751 334.257 751.825 337.039 754.811C340.284 758.295 340.282 757.398 337.03 751.554C333.349 744.937 333.128 742.911 336.502 746.694L339.004 749.5L336.086 742.5C331.588 731.709 329.125 720.564 326.963 701.224C322.248 659.053 312.064 616.165 300.543 589.961C298.555 585.439 297.103 581.563 297.318 581.349C297.532 581.135 298.932 582.81 300.429 585.071C301.925 587.333 303.374 588.959 303.649 588.685C304.19 588.143 299.033 577.313 296.537 573.749C293.996 570.122 294.8 569.435 298 572.5C299.65 574.081 301 575.102 301 574.768C301 574.435 299.183 570.638 296.962 566.331C289.947 552.728 289.776 540.922 296.412 528.306C306.697 508.75 330.321 483.968 353.774 468.129L360.049 463.892L366.774 469.814C378.672 480.288 389.66 486.737 404.92 492.201C414.887 495.77 421.193 502.564 423.909 512.659C424.936 516.476 424.733 517.546 421.441 525.659C394.947 590.951 400.802 664.876 437.155 724.08C479.209 792.569 553.039 832.373 633 829.666C697.559 827.481 757.257 797.524 797.323 747.208C822.033 716.177 837.273 681.051 843.621 640.5C845.982 625.423 845.966 593.641 843.59 578.5C837.577 540.173 823.975 507.227 801.685 477C793.359 465.71 772.067 444.224 759.567 434.498C748.375 425.791 727.859 413.415 717.168 408.922C708.267 405.181 706.149 402.354 712.928 403.264C717.817 403.919 717.527 402.279 712.21 399.196C709.328 397.526 708.946 397.017 710.5 396.917C714.775 396.641 718.608 397.263 721.338 398.675C726.914 401.558 725.63 398.479 719.663 394.657C718.103 393.658 717.076 392.591 717.381 392.285C718.268 391.399 724.172 394.103 728.25 397.262C732.3 400.4 733.157 399.74 730.092 395.844C725.349 389.814 710.238 385.025 695.792 384.974C677.258 384.909 660.387 382.051 631.25 374.044C596.286 364.435 564.075 352.157 535 337.356C524.825 332.176 515.375 327.022 514 325.902C511.597 323.945 511.591 323.91 513.836 325.014C517.986 327.054 517.268 325.28 512.66 322.11C507.915 318.845 500.979 311.367 501.03 309.57C501.047 308.982 501.516 309.282 502.073 310.238C502.63 311.193 504.021 312.476 505.164 313.088C507.455 314.314 507.315 313.873 503.793 308.785C501.367 305.28 500.483 297.619 501.899 292.368C504.07 284.32 512.448 278 520.948 278C525.304 278 531.943 280.255 536.154 283.166C540.513 286.177 540.659 285.259 536.5 281C534.352 278.8 532.933 277 533.347 277C535.451 277 540.218 280.44 543.885 284.607C548.116 289.413 549.162 289.148 546.474 283.95C545.635 282.328 545.298 281 545.724 281C546.67 281 551.177 286.571 553.004 289.997C554.907 293.568 555.339 291.013 553.657 286.13C552.874 283.859 552.454 282 552.723 282C553.297 282 556.928 286.424 558.811 289.417C560.018 291.337 560.079 291.245 559.586 288.25C558.856 283.824 560.274 284.161 562.589 288.964C564.444 292.81 564.515 292.85 565 290.331L565.5 287.736L568.146 291.459C569.601 293.507 573.407 297.887 576.603 301.192C591.438 316.528 605.429 325.494 622.203 330.416C626.767 331.755 632.469 333.559 634.876 334.425C642.077 337.017 648.284 335.977 651.945 331.566C652.726 330.625 654.832 330 657.218 330C668.233 330 674.145 317.626 667.643 308.183C662.423 300.602 656.983 275.36 656.278 255.446C655.772 241.166 655.876 240.009 658.303 232.946C666.699 208.518 665.653 178.361 655.623 155.683C654.241 152.557 652.84 150 652.51 150C652.18 150 652.157 151.688 652.459 153.75C652.762 155.813 651.455 153.086 649.556 147.69C645.574 136.38 640.041 124 638.969 124C638.565 124 638.878 125.87 639.666 128.157C640.454 130.443 640.939 133.255 640.746 134.407C640.501 135.858 639.909 134.954 638.812 131.458C636.762 124.921 629.747 110.993 624.983 104C622.921 100.975 618.903 96.25 616.053 93.5C613.203 90.75 609.95 86.733 608.825 84.573C601.099 69.746 583.788 61.599 568 65.361ZM416.5 406.348C454.754 428.625 461.084 433.433 471.235 447.925L472.902 450.306L478.796 444.849C485.831 438.337 501.058 426.874 509.765 421.537C513.211 419.425 515.831 417.498 515.588 417.254C515.344 417.011 501.5 415.088 484.822 412.982C468.145 410.875 446.21 407.993 436.079 406.576C425.947 405.159 416.497 404.004 415.079 404.009C412.71 404.018 412.826 404.209 416.5 406.348Z" fill="#1D427B"/>
</g>
<path id="MIDWEST" d="M479.107 624V582.927H488.671L505.687 610.857H500.641L517.188 582.927H526.752L526.869 624H516.19L516.073 599.18H517.892L505.511 619.951H500.348L487.615 599.18H489.845V624H479.107ZM536.557 624V582.927H548.175V624H536.557ZM557.907 624V582.927H577.329C581.866 582.927 585.856 583.768 589.298 585.45C592.741 587.132 595.42 589.499 597.337 592.55C599.293 595.601 600.271 599.239 600.271 603.463C600.271 607.649 599.293 611.287 597.337 614.377C595.42 617.428 592.741 619.795 589.298 621.477C585.856 623.159 581.866 624 577.329 624H557.907ZM569.525 614.729H576.859C579.206 614.729 581.24 614.299 582.961 613.438C584.722 612.539 586.091 611.248 587.069 609.566C588.047 607.845 588.536 605.811 588.536 603.463C588.536 601.077 588.047 599.043 587.069 597.361C586.091 595.679 584.722 594.408 582.961 593.547C581.24 592.648 579.206 592.198 576.859 592.198H569.525V614.729ZM616.626 624L603.306 582.927H615.276L626.483 618.484H620.44L632.234 582.927H642.912L654.061 618.484H648.252L659.811 582.927H670.901L657.581 624H645.142L635.637 593.782H638.981L629.065 624H616.626ZM676.53 624V582.927H708.743V591.904H688.031V615.023H709.506V624H676.53ZM687.209 607.512V598.828H706.279V607.512H687.209ZM731.854 624.821C728.49 624.821 725.244 624.411 722.114 623.589C719.024 622.729 716.501 621.633 714.545 620.303L718.359 611.737C720.197 612.91 722.31 613.888 724.696 614.671C727.121 615.414 729.527 615.785 731.913 615.785C733.517 615.785 734.808 615.648 735.786 615.375C736.764 615.062 737.468 614.671 737.898 614.201C738.367 613.693 738.602 613.106 738.602 612.441C738.602 611.502 738.172 610.759 737.311 610.211C736.451 609.664 735.336 609.214 733.967 608.862C732.598 608.51 731.072 608.158 729.39 607.805C727.747 607.453 726.085 607.004 724.403 606.456C722.76 605.908 721.254 605.204 719.884 604.344C718.515 603.444 717.401 602.29 716.54 600.882C715.679 599.434 715.249 597.615 715.249 595.425C715.249 592.961 715.914 590.731 717.244 588.736C718.613 586.741 720.647 585.137 723.346 583.924C726.045 582.712 729.41 582.106 733.439 582.106C736.138 582.106 738.778 582.418 741.36 583.044C743.981 583.631 746.308 584.511 748.342 585.685L744.763 594.31C742.807 593.254 740.871 592.472 738.954 591.963C737.037 591.415 735.179 591.142 733.38 591.142C731.776 591.142 730.485 591.318 729.507 591.67C728.529 591.983 727.825 592.413 727.395 592.961C726.965 593.508 726.75 594.134 726.75 594.838C726.75 595.738 727.16 596.462 727.982 597.009C728.842 597.518 729.957 597.948 731.326 598.3C732.734 598.613 734.26 598.945 735.903 599.298C737.585 599.65 739.247 600.099 740.89 600.647C742.572 601.156 744.098 601.86 745.467 602.759C746.836 603.62 747.931 604.774 748.753 606.221C749.614 607.629 750.044 609.409 750.044 611.561C750.044 613.947 749.359 616.157 747.99 618.191C746.66 620.186 744.646 621.79 741.947 623.003C739.287 624.215 735.923 624.821 731.854 624.821ZM765.047 624V592.139H752.432V582.927H789.221V592.139H776.665V624H765.047Z" fill="#1D427B"/>
<path id="EST 2015" d="M510.978 542V532.221H518.648V534.358H513.716V539.863H518.829V542H510.978ZM513.521 538.074V536.007H518.061V538.074H513.521ZM524.15 542.196C523.349 542.196 522.576 542.098 521.831 541.902C521.095 541.697 520.495 541.437 520.029 541.12L520.937 539.08C521.375 539.36 521.878 539.592 522.446 539.779C523.023 539.956 523.596 540.044 524.164 540.044C524.546 540.044 524.853 540.012 525.086 539.946C525.319 539.872 525.487 539.779 525.589 539.667C525.701 539.546 525.757 539.406 525.757 539.248C525.757 539.024 525.654 538.847 525.45 538.717C525.245 538.587 524.979 538.479 524.653 538.396C524.327 538.312 523.964 538.228 523.564 538.144C523.172 538.06 522.777 537.953 522.376 537.823C521.985 537.692 521.626 537.525 521.3 537.32C520.974 537.106 520.709 536.831 520.504 536.496C520.299 536.151 520.197 535.718 520.197 535.196C520.197 534.61 520.355 534.079 520.672 533.604C520.998 533.129 521.482 532.747 522.125 532.458C522.767 532.169 523.568 532.025 524.527 532.025C525.17 532.025 525.799 532.1 526.413 532.249C527.037 532.388 527.592 532.598 528.076 532.877L527.224 534.931C526.758 534.68 526.297 534.493 525.841 534.372C525.384 534.242 524.942 534.177 524.514 534.177C524.132 534.177 523.824 534.218 523.591 534.302C523.359 534.377 523.191 534.479 523.089 534.61C522.986 534.74 522.935 534.889 522.935 535.057C522.935 535.271 523.033 535.443 523.228 535.574C523.433 535.695 523.699 535.797 524.025 535.881C524.36 535.955 524.723 536.035 525.114 536.118C525.515 536.202 525.911 536.309 526.302 536.44C526.702 536.561 527.065 536.728 527.391 536.943C527.717 537.148 527.978 537.422 528.174 537.767C528.379 538.102 528.481 538.526 528.481 539.038C528.481 539.606 528.318 540.133 527.992 540.617C527.675 541.092 527.196 541.474 526.553 541.763C525.92 542.051 525.119 542.196 524.15 542.196ZM532.053 542V534.414H529.05V532.221H537.809V534.414H534.819V542H532.053ZM543.045 542V540.268L546.705 536.845C546.966 536.603 547.157 536.389 547.278 536.202C547.408 536.016 547.492 535.848 547.529 535.699C547.576 535.541 547.599 535.397 547.599 535.266C547.599 534.95 547.492 534.703 547.278 534.526C547.073 534.349 546.761 534.26 546.342 534.26C545.988 534.26 545.657 534.34 545.35 534.498C545.043 534.656 544.791 534.894 544.596 535.21L542.542 534.065C542.905 533.45 543.431 532.956 544.121 532.584C544.81 532.211 545.634 532.025 546.593 532.025C547.348 532.025 548.009 532.146 548.577 532.388C549.145 532.631 549.588 532.975 549.904 533.422C550.23 533.869 550.393 534.395 550.393 535.001C550.393 535.317 550.351 535.634 550.268 535.951C550.184 536.258 550.021 536.589 549.779 536.943C549.546 537.287 549.197 537.674 548.731 538.102L545.825 540.785L545.364 539.807H550.659V542H543.045ZM556.13 542.196C555.292 542.196 554.547 541.995 553.895 541.595C553.252 541.194 552.745 540.617 552.372 539.863C551.999 539.108 551.813 538.191 551.813 537.11C551.813 536.03 551.999 535.113 552.372 534.358C552.745 533.604 553.252 533.026 553.895 532.626C554.547 532.225 555.292 532.025 556.13 532.025C556.959 532.025 557.695 532.225 558.337 532.626C558.989 533.026 559.502 533.604 559.874 534.358C560.247 535.113 560.433 536.03 560.433 537.11C560.433 538.191 560.247 539.108 559.874 539.863C559.502 540.617 558.989 541.194 558.337 541.595C557.695 541.995 556.959 542.196 556.13 542.196ZM556.13 539.932C556.428 539.932 556.689 539.839 556.912 539.653C557.145 539.467 557.327 539.169 557.457 538.759C557.588 538.34 557.653 537.79 557.653 537.11C557.653 536.421 557.588 535.872 557.457 535.462C557.327 535.052 557.145 534.754 556.912 534.568C556.689 534.381 556.428 534.288 556.13 534.288C555.832 534.288 555.567 534.381 555.334 534.568C555.11 534.754 554.929 535.052 554.789 535.462C554.659 535.872 554.593 536.421 554.593 537.11C554.593 537.79 554.659 538.34 554.789 538.759C554.929 539.169 555.11 539.467 555.334 539.653C555.567 539.839 555.832 539.932 556.13 539.932ZM563.056 542V533.213L564.243 534.358H561.24V532.221H565.822V542H563.056ZM571.065 542.196C570.394 542.196 569.719 542.112 569.039 541.944C568.359 541.776 567.772 541.539 567.279 541.232L568.27 539.15C568.671 539.411 569.104 539.611 569.57 539.751C570.045 539.89 570.515 539.96 570.981 539.96C571.446 539.96 571.824 539.872 572.112 539.695C572.401 539.509 572.545 539.252 572.545 538.927C572.545 538.731 572.49 538.559 572.378 538.41C572.266 538.251 572.075 538.135 571.805 538.06C571.535 537.977 571.148 537.935 570.645 537.935H567.991L568.48 532.221H574.711V534.358H569.458L570.869 533.143L570.548 536.999L569.137 535.783H571.302C572.271 535.783 573.048 535.923 573.635 536.202C574.222 536.472 574.65 536.84 574.92 537.306C575.19 537.762 575.326 538.279 575.326 538.857C575.326 539.434 575.172 539.979 574.865 540.491C574.566 540.994 574.105 541.404 573.481 541.721C572.857 542.037 572.052 542.196 571.065 542.196Z" fill="#1D427B"/>
<path id="DUMPSTER RENTAL" d="M624.978 730V720.221H629.602C630.683 720.221 631.633 720.421 632.452 720.821C633.272 721.222 633.91 721.785 634.366 722.512C634.832 723.238 635.065 724.104 635.065 725.11C635.065 726.107 634.832 726.973 634.366 727.709C633.91 728.435 633.272 728.999 632.452 729.399C631.633 729.8 630.683 730 629.602 730H624.978ZM627.744 727.793H629.49C630.049 727.793 630.533 727.69 630.943 727.485C631.362 727.271 631.688 726.964 631.921 726.563C632.154 726.153 632.27 725.669 632.27 725.11C632.27 724.542 632.154 724.058 631.921 723.657C631.688 723.257 631.362 722.954 630.943 722.749C630.533 722.535 630.049 722.428 629.49 722.428H627.744V727.793ZM641.382 730.196C639.938 730.196 638.811 729.8 638.001 729.008C637.19 728.216 636.785 727.094 636.785 725.641V720.221H639.551V725.557C639.551 726.396 639.714 726.996 640.04 727.36C640.376 727.723 640.832 727.904 641.41 727.904C641.987 727.904 642.439 727.723 642.765 727.36C643.091 726.996 643.254 726.396 643.254 725.557V720.221H645.978V725.641C645.978 727.094 645.573 728.216 644.762 729.008C643.952 729.8 642.825 730.196 641.382 730.196ZM648.201 730V720.221H650.478L654.53 726.871H653.328L657.268 720.221H659.545L659.573 730H657.03L657.002 724.091H657.435L654.488 729.036H653.258L650.227 724.091H650.758V730H648.201ZM661.879 730V720.221H666.35C667.244 720.221 668.012 720.365 668.655 720.654C669.307 720.943 669.81 721.362 670.164 721.911C670.518 722.451 670.695 723.094 670.695 723.839C670.695 724.575 670.518 725.213 670.164 725.753C669.81 726.293 669.307 726.712 668.655 727.01C668.012 727.299 667.244 727.443 666.35 727.443H663.416L664.646 726.242V730H661.879ZM664.646 726.535L663.416 725.264H666.182C666.76 725.264 667.188 725.138 667.468 724.887C667.756 724.635 667.901 724.286 667.901 723.839C667.901 723.383 667.756 723.029 667.468 722.777C667.188 722.526 666.76 722.4 666.182 722.4H663.416L664.646 721.129V726.535ZM675.966 730.196C675.165 730.196 674.392 730.098 673.647 729.902C672.911 729.697 672.31 729.437 671.845 729.12L672.753 727.08C673.19 727.36 673.693 727.592 674.261 727.779C674.839 727.956 675.412 728.044 675.98 728.044C676.362 728.044 676.669 728.012 676.902 727.946C677.135 727.872 677.302 727.779 677.405 727.667C677.517 727.546 677.572 727.406 677.572 727.248C677.572 727.024 677.47 726.847 677.265 726.717C677.06 726.587 676.795 726.479 676.469 726.396C676.143 726.312 675.78 726.228 675.379 726.144C674.988 726.06 674.592 725.953 674.192 725.823C673.8 725.692 673.442 725.525 673.116 725.32C672.79 725.106 672.525 724.831 672.32 724.496C672.115 724.151 672.012 723.718 672.012 723.196C672.012 722.61 672.171 722.079 672.487 721.604C672.813 721.129 673.298 720.747 673.94 720.458C674.583 720.169 675.384 720.025 676.343 720.025C676.986 720.025 677.614 720.1 678.229 720.249C678.853 720.388 679.407 720.598 679.892 720.877L679.039 722.931C678.574 722.68 678.113 722.493 677.656 722.372C677.2 722.242 676.758 722.177 676.329 722.177C675.947 722.177 675.64 722.218 675.407 722.302C675.174 722.377 675.007 722.479 674.904 722.61C674.802 722.74 674.75 722.889 674.75 723.057C674.75 723.271 674.848 723.443 675.044 723.574C675.249 723.695 675.514 723.797 675.84 723.881C676.175 723.955 676.539 724.035 676.93 724.118C677.33 724.202 677.726 724.309 678.117 724.44C678.518 724.561 678.881 724.728 679.207 724.943C679.533 725.148 679.794 725.422 679.989 725.767C680.194 726.102 680.297 726.526 680.297 727.038C680.297 727.606 680.134 728.133 679.808 728.617C679.491 729.092 679.011 729.474 678.369 729.763C677.735 730.051 676.934 730.196 675.966 730.196ZM683.869 730V722.414H680.865V720.221H689.625V722.414H686.635V730H683.869ZM691.004 730V720.221H698.674V722.358H693.743V727.863H698.856V730H691.004ZM693.547 726.074V724.007H698.087V726.074H693.547ZM700.74 730V720.221H705.113C706.538 720.221 707.632 720.547 708.396 721.199C709.169 721.841 709.555 722.721 709.555 723.839C709.555 724.575 709.378 725.213 709.025 725.753C708.671 726.284 708.168 726.694 707.516 726.982C706.873 727.262 706.105 727.402 705.211 727.402H702.277L703.506 726.242V730H700.74ZM706.789 730L704.358 726.438H707.306L709.751 730H706.789ZM703.506 726.535L702.277 725.264H705.043C705.62 725.264 706.049 725.138 706.328 724.887C706.617 724.635 706.761 724.286 706.761 723.839C706.761 723.383 706.617 723.029 706.328 722.777C706.049 722.526 705.62 722.4 705.043 722.4H702.277L703.506 721.129V726.535ZM715.846 730V720.221H720.218C721.643 720.221 722.738 720.547 723.501 721.199C724.274 721.841 724.661 722.721 724.661 723.839C724.661 724.575 724.484 725.213 724.13 725.753C723.776 726.284 723.273 726.694 722.621 726.982C721.979 727.262 721.21 727.402 720.316 727.402H717.382L718.612 726.242V730H715.846ZM721.895 730L719.464 726.438H722.412L724.857 730H721.895ZM718.612 726.535L717.382 725.264H720.149C720.726 725.264 721.154 725.138 721.434 724.887C721.723 724.635 721.867 724.286 721.867 723.839C721.867 723.383 721.723 723.029 721.434 722.777C721.154 722.526 720.726 722.4 720.149 722.4H717.382L718.612 721.129V726.535ZM726.536 730V720.221H734.206V722.358H729.274V727.863H734.388V730H726.536ZM729.079 726.074V724.007H733.619V726.074H729.079ZM736.272 730V720.221H738.549L743.942 726.731H742.866V720.221H745.576V730H743.299L737.906 723.49H738.982V730H736.272ZM749.958 730V722.414H746.955V720.221H755.714V722.414H752.724V730H749.958ZM755.429 730L759.746 720.221H762.47L766.801 730H763.923L760.542 721.576H761.632L758.251 730H755.429ZM757.79 728.1L758.503 726.06H763.281L763.993 728.1H757.79ZM767.935 730V720.221H770.701V727.807H775.367V730H767.935Z" fill="#1D427B"/>
<path id="WASTE" d="M530.258 677L516.939 635.927H528.909L540.116 671.484H534.072L545.866 635.927H556.545L567.693 671.484H561.884L573.444 635.927H584.533L571.214 677H558.775L549.269 646.782H552.614L542.697 677H530.258ZM583.802 677L601.932 635.927H613.374L631.564 677H619.476L605.277 641.619H609.854L595.654 677H583.802ZM593.718 669.02L596.71 660.453H616.777L619.77 669.02H593.718ZM650.758 677.821C647.394 677.821 644.148 677.411 641.018 676.589C637.928 675.729 635.405 674.633 633.449 673.303L637.263 664.737C639.102 665.91 641.214 666.888 643.6 667.671C646.025 668.414 648.431 668.785 650.817 668.785C652.421 668.785 653.712 668.648 654.69 668.375C655.668 668.062 656.372 667.671 656.802 667.201C657.271 666.693 657.506 666.106 657.506 665.441C657.506 664.502 657.076 663.759 656.215 663.211C655.355 662.664 654.24 662.214 652.871 661.862C651.502 661.51 649.976 661.158 648.294 660.805C646.651 660.453 644.989 660.004 643.307 659.456C641.664 658.908 640.158 658.204 638.789 657.344C637.419 656.444 636.305 655.29 635.444 653.882C634.583 652.434 634.153 650.615 634.153 648.425C634.153 645.961 634.818 643.731 636.148 641.736C637.517 639.741 639.551 638.137 642.25 636.924C644.95 635.712 648.314 635.106 652.343 635.106C655.042 635.106 657.682 635.418 660.264 636.044C662.885 636.631 665.212 637.511 667.246 638.685L663.667 647.31C661.711 646.254 659.775 645.472 657.858 644.963C655.941 644.415 654.083 644.142 652.284 644.142C650.68 644.142 649.389 644.318 648.411 644.67C647.433 644.983 646.729 645.413 646.299 645.961C645.869 646.508 645.654 647.134 645.654 647.838C645.654 648.738 646.064 649.462 646.886 650.009C647.746 650.518 648.861 650.948 650.23 651.3C651.639 651.613 653.164 651.945 654.807 652.298C656.489 652.65 658.152 653.099 659.794 653.647C661.477 654.156 663.002 654.86 664.371 655.759C665.74 656.62 666.836 657.774 667.657 659.221C668.518 660.629 668.948 662.409 668.948 664.561C668.948 666.947 668.263 669.157 666.894 671.191C665.564 673.186 663.55 674.79 660.851 676.003C658.191 677.215 654.827 677.821 650.758 677.821ZM683.951 677V645.139H671.336V635.927H708.125V645.139H695.569V677H683.951ZM713.921 677V635.927H746.134V644.904H725.421V668.023H746.896V677H713.921ZM724.6 660.512V651.828H743.669V660.512H724.6Z" fill="#1D427B"/>
<line id="Line 1" x1="605" y1="537.5" x2="780" y2="537.5" stroke="#FD7C04" stroke-width="15"/>
<line id="Line 2" x1="485" y1="725.5" x2="610" y2="725.5" stroke="#FD7C04" stroke-width="15"/>
</g>
<defs>
<clipPath id="clip0_1_2">
<rect width="874" height="867" fill="white"/>
</clipPath>
</defs>
</svg>
